<svg xmlns="http://www.w3.org/2000/svg"
 width="530" height="119"
 viewBox="0 0 530 119"
 role="img" aria-label="CueScore logo">
  <title>CueScore Official Logo Master v1.0</title>
  <desc>Vector master traced from the approved CueScore logo reference. No font dependency; all artwork is path data.</desc>
  <path d="M 202.00 50.00 L 202.00 81.00 L 203.00 82.00 L 203.00 86.00 L 204.00 87.00 L 204.00 88.00 L 206.00 90.00 L 206.00 91.00 L 208.00 93.00 L 209.00 93.00 L 212.00 95.00 L 214.00 95.00 L 215.00 96.00 L 222.00 96.00 L 223.00 95.00 L 226.00 95.00 L 227.00 94.00 L 228.00 94.00 L 232.00 90.00 L 233.00 91.00 L 233.00 95.00 L 243.00 95.00 L 243.00 50.00 L 232.00 50.00 L 232.00 80.00 L 231.00 81.00 L 231.00 82.00 L 228.00 85.00 L 227.00 85.00 L 226.00 86.00 L 224.00 86.00 L 223.00 87.00 L 220.00 87.00 L 219.00 86.00 L 216.00 85.00 L 214.00 83.00 L 214.00 82.00 L 213.00 81.00 L 213.00 50.00 Z M 503.00 49.00 L 502.00 50.00 L 500.00 50.00 L 499.00 51.00 L 496.00 52.00 L 491.00 56.00 L 491.00 57.00 L 489.00 59.00 L 489.00 60.00 L 487.00 63.00 L 487.00 65.00 L 486.00 66.00 L 486.00 70.00 L 485.00 71.00 L 485.00 74.00 L 486.00 75.00 L 486.00 79.00 L 487.00 80.00 L 487.00 83.00 L 488.00 84.00 L 488.00 85.00 L 490.00 87.00 L 490.00 88.00 L 494.00 92.00 L 495.00 92.00 L 500.00 95.00 L 503.00 95.00 L 504.00 96.00 L 512.00 96.00 L 513.00 95.00 L 516.00 95.00 L 517.00 94.00 L 518.00 94.00 L 519.00 93.00 L 522.00 92.00 L 527.00 87.00 L 523.00 83.00 L 522.00 83.00 L 520.00 81.00 L 516.00 85.00 L 515.00 85.00 L 512.00 87.00 L 505.00 87.00 L 504.00 86.00 L 502.00 86.00 L 497.00 81.00 L 497.00 79.00 L 496.00 78.00 L 496.00 77.00 L 497.00 76.00 L 528.00 76.00 L 529.00 75.00 L 529.00 68.00 L 528.00 67.00 L 528.00 64.00 L 527.00 63.00 L 527.00 61.00 L 526.00 60.00 L 526.00 59.00 L 524.00 57.00 L 524.00 56.00 L 522.00 54.00 L 521.00 54.00 L 519.00 52.00 L 518.00 52.00 L 515.00 50.00 L 513.00 50.00 L 512.00 49.00 Z M 496.00 66.00 L 497.00 65.00 L 497.00 64.00 L 502.00 59.00 L 503.00 59.00 L 504.00 58.00 L 511.00 58.00 L 512.00 59.00 L 515.00 60.00 L 517.00 62.00 L 517.00 63.00 L 518.00 64.00 L 518.00 66.00 L 519.00 67.00 L 518.00 68.00 L 497.00 68.00 L 496.00 67.00 Z M 482.00 49.00 L 475.00 49.00 L 474.00 50.00 L 472.00 50.00 L 470.00 52.00 L 469.00 52.00 L 467.00 55.00 L 466.00 54.00 L 466.00 50.00 L 456.00 50.00 L 456.00 95.00 L 466.00 95.00 L 466.00 69.00 L 467.00 68.00 L 467.00 66.00 L 468.00 65.00 L 468.00 64.00 L 472.00 60.00 L 474.00 60.00 L 475.00 59.00 L 481.00 59.00 L 482.00 60.00 L 483.00 60.00 L 483.00 50.00 Z M 420.00 49.00 L 419.00 50.00 L 416.00 50.00 L 415.00 51.00 L 414.00 51.00 L 413.00 52.00 L 410.00 53.00 L 405.00 58.00 L 405.00 59.00 L 402.00 64.00 L 402.00 66.00 L 401.00 67.00 L 401.00 78.00 L 402.00 79.00 L 402.00 81.00 L 403.00 82.00 L 403.00 84.00 L 405.00 86.00 L 405.00 87.00 L 410.00 92.00 L 411.00 92.00 L 413.00 94.00 L 415.00 94.00 L 416.00 95.00 L 419.00 95.00 L 420.00 96.00 L 428.00 96.00 L 429.00 95.00 L 432.00 95.00 L 433.00 94.00 L 435.00 94.00 L 436.00 93.00 L 437.00 93.00 L 444.00 86.00 L 444.00 85.00 L 446.00 83.00 L 446.00 81.00 L 447.00 80.00 L 447.00 76.00 L 448.00 75.00 L 448.00 69.00 L 447.00 68.00 L 447.00 65.00 L 446.00 64.00 L 446.00 63.00 L 445.00 62.00 L 444.00 59.00 L 438.00 53.00 L 437.00 53.00 L 435.00 51.00 L 433.00 51.00 L 432.00 50.00 L 430.00 50.00 L 429.00 49.00 Z M 421.00 58.00 L 427.00 58.00 L 428.00 59.00 L 431.00 60.00 L 436.00 65.00 L 436.00 67.00 L 437.00 68.00 L 437.00 78.00 L 436.00 79.00 L 436.00 80.00 L 430.00 86.00 L 428.00 86.00 L 427.00 87.00 L 421.00 87.00 L 420.00 86.00 L 417.00 85.00 L 413.00 81.00 L 413.00 80.00 L 412.00 79.00 L 412.00 76.00 L 411.00 75.00 L 411.00 70.00 L 412.00 69.00 L 412.00 66.00 L 414.00 64.00 L 414.00 63.00 L 417.00 60.00 L 418.00 60.00 Z M 373.00 49.00 L 372.00 50.00 L 370.00 50.00 L 369.00 51.00 L 366.00 52.00 L 364.00 54.00 L 363.00 54.00 L 361.00 56.00 L 361.00 57.00 L 358.00 60.00 L 358.00 61.00 L 357.00 62.00 L 357.00 64.00 L 356.00 65.00 L 356.00 68.00 L 355.00 69.00 L 355.00 76.00 L 356.00 77.00 L 356.00 80.00 L 357.00 81.00 L 357.00 83.00 L 358.00 84.00 L 358.00 85.00 L 360.00 87.00 L 360.00 88.00 L 364.00 92.00 L 365.00 92.00 L 370.00 95.00 L 373.00 95.00 L 374.00 96.00 L 382.00 96.00 L 383.00 95.00 L 386.00 95.00 L 387.00 94.00 L 388.00 94.00 L 389.00 93.00 L 392.00 92.00 L 397.00 87.00 L 390.00 81.00 L 389.00 81.00 L 384.00 86.00 L 381.00 86.00 L 380.00 87.00 L 376.00 87.00 L 375.00 86.00 L 373.00 86.00 L 371.00 84.00 L 370.00 84.00 L 369.00 83.00 L 369.00 82.00 L 367.00 80.00 L 367.00 78.00 L 366.00 77.00 L 366.00 67.00 L 367.00 66.00 L 367.00 65.00 L 369.00 63.00 L 369.00 62.00 L 375.00 58.00 L 381.00 58.00 L 382.00 59.00 L 384.00 59.00 L 386.00 61.00 L 387.00 61.00 L 388.00 62.00 L 388.00 63.00 L 390.00 63.00 L 391.00 62.00 L 392.00 62.00 L 397.00 58.00 L 391.00 52.00 L 390.00 52.00 L 387.00 50.00 L 385.00 50.00 L 384.00 49.00 Z M 265.00 50.00 L 264.00 51.00 L 261.00 52.00 L 255.00 58.00 L 255.00 59.00 L 252.00 64.00 L 252.00 66.00 L 251.00 67.00 L 251.00 78.00 L 252.00 79.00 L 252.00 82.00 L 253.00 83.00 L 254.00 86.00 L 261.00 93.00 L 262.00 93.00 L 265.00 95.00 L 268.00 95.00 L 269.00 96.00 L 277.00 96.00 L 278.00 95.00 L 282.00 95.00 L 283.00 94.00 L 286.00 93.00 L 288.00 91.00 L 289.00 91.00 L 292.00 88.00 L 292.00 86.00 L 291.00 85.00 L 290.00 85.00 L 287.00 82.00 L 285.00 82.00 L 280.00 86.00 L 278.00 86.00 L 277.00 87.00 L 270.00 87.00 L 264.00 83.00 L 264.00 82.00 L 262.00 80.00 L 262.00 78.00 L 261.00 77.00 L 262.00 76.00 L 294.00 76.00 L 294.00 64.00 L 293.00 63.00 L 293.00 61.00 L 288.00 54.00 L 287.00 54.00 L 285.00 52.00 L 284.00 52.00 L 281.00 50.00 L 279.00 50.00 L 278.00 49.00 L 268.00 49.00 L 267.00 50.00 Z M 262.00 65.00 L 263.00 64.00 L 263.00 63.00 L 267.00 59.00 L 268.00 59.00 L 269.00 58.00 L 272.00 58.00 L 273.00 57.00 L 274.00 58.00 L 277.00 58.00 L 278.00 59.00 L 279.00 59.00 L 283.00 63.00 L 283.00 64.00 L 284.00 65.00 L 284.00 67.00 L 283.00 68.00 L 263.00 68.00 L 262.00 67.00 Z M 54.00 41.00 L 53.00 42.00 L 50.00 43.00 L 48.00 45.00 L 47.00 45.00 L 43.00 50.00 L 43.00 51.00 L 42.00 52.00 L 42.00 55.00 L 41.00 56.00 L 41.00 61.00 L 42.00 62.00 L 42.00 64.00 L 43.00 65.00 L 43.00 67.00 L 45.00 69.00 L 45.00 70.00 L 48.00 73.00 L 49.00 73.00 L 54.00 76.00 L 64.00 76.00 L 65.00 75.00 L 67.00 75.00 L 68.00 74.00 L 69.00 74.00 L 74.00 69.00 L 74.00 68.00 L 77.00 63.00 L 77.00 54.00 L 76.00 53.00 L 76.00 52.00 L 75.00 51.00 L 74.00 48.00 L 70.00 44.00 L 69.00 44.00 L 67.00 42.00 L 65.00 42.00 L 64.00 41.00 Z M 322.00 26.00 L 321.00 27.00 L 318.00 27.00 L 317.00 28.00 L 315.00 28.00 L 313.00 30.00 L 312.00 30.00 L 307.00 35.00 L 307.00 36.00 L 305.00 39.00 L 305.00 41.00 L 304.00 42.00 L 304.00 50.00 L 305.00 51.00 L 305.00 53.00 L 306.00 54.00 L 307.00 57.00 L 311.00 61.00 L 312.00 61.00 L 314.00 63.00 L 316.00 63.00 L 317.00 64.00 L 319.00 64.00 L 320.00 65.00 L 322.00 65.00 L 323.00 66.00 L 325.00 66.00 L 326.00 67.00 L 329.00 67.00 L 330.00 68.00 L 333.00 69.00 L 337.00 73.00 L 337.00 75.00 L 338.00 76.00 L 338.00 78.00 L 337.00 79.00 L 337.00 81.00 L 333.00 85.00 L 332.00 85.00 L 331.00 86.00 L 329.00 86.00 L 328.00 87.00 L 323.00 87.00 L 322.00 86.00 L 319.00 86.00 L 318.00 85.00 L 317.00 85.00 L 315.00 83.00 L 314.00 83.00 L 310.00 79.00 L 310.00 78.00 L 309.00 79.00 L 308.00 79.00 L 302.00 85.00 L 302.00 86.00 L 307.00 91.00 L 308.00 91.00 L 310.00 93.00 L 311.00 93.00 L 312.00 94.00 L 314.00 94.00 L 315.00 95.00 L 317.00 95.00 L 318.00 96.00 L 331.00 96.00 L 332.00 95.00 L 335.00 95.00 L 336.00 94.00 L 337.00 94.00 L 338.00 93.00 L 341.00 92.00 L 346.00 87.00 L 346.00 86.00 L 348.00 83.00 L 348.00 80.00 L 349.00 79.00 L 349.00 72.00 L 348.00 71.00 L 348.00 69.00 L 347.00 68.00 L 347.00 67.00 L 344.00 64.00 L 344.00 63.00 L 343.00 62.00 L 342.00 62.00 L 340.00 60.00 L 339.00 60.00 L 336.00 58.00 L 334.00 58.00 L 333.00 57.00 L 331.00 57.00 L 330.00 56.00 L 328.00 56.00 L 327.00 55.00 L 324.00 55.00 L 323.00 54.00 L 322.00 54.00 L 321.00 53.00 L 318.00 52.00 L 316.00 50.00 L 316.00 49.00 L 315.00 48.00 L 315.00 42.00 L 316.00 41.00 L 316.00 40.00 L 317.00 39.00 L 318.00 39.00 L 320.00 37.00 L 322.00 37.00 L 323.00 36.00 L 331.00 36.00 L 332.00 37.00 L 335.00 38.00 L 337.00 40.00 L 338.00 40.00 L 340.00 42.00 L 340.00 43.00 L 341.00 43.00 L 348.00 36.00 L 348.00 35.00 L 346.00 33.00 L 345.00 33.00 L 342.00 30.00 L 341.00 30.00 L 336.00 27.00 L 331.00 27.00 L 330.00 26.00 Z M 162.00 26.00 L 161.00 27.00 L 159.00 27.00 L 158.00 28.00 L 156.00 28.00 L 155.00 29.00 L 154.00 29.00 L 153.00 30.00 L 150.00 31.00 L 142.00 39.00 L 142.00 40.00 L 140.00 42.00 L 140.00 43.00 L 138.00 46.00 L 138.00 48.00 L 137.00 49.00 L 137.00 51.00 L 136.00 52.00 L 136.00 59.00 L 135.00 60.00 L 135.00 62.00 L 136.00 63.00 L 136.00 70.00 L 137.00 71.00 L 137.00 74.00 L 138.00 75.00 L 138.00 77.00 L 139.00 78.00 L 139.00 79.00 L 141.00 81.00 L 142.00 84.00 L 148.00 90.00 L 149.00 90.00 L 151.00 92.00 L 152.00 92.00 L 155.00 94.00 L 157.00 94.00 L 158.00 95.00 L 161.00 95.00 L 162.00 96.00 L 174.00 96.00 L 175.00 95.00 L 178.00 95.00 L 179.00 94.00 L 181.00 94.00 L 182.00 93.00 L 185.00 92.00 L 187.00 90.00 L 188.00 90.00 L 192.00 86.00 L 192.00 85.00 L 194.00 83.00 L 194.00 82.00 L 193.00 82.00 L 190.00 79.00 L 189.00 79.00 L 187.00 77.00 L 185.00 77.00 L 185.00 78.00 L 180.00 83.00 L 179.00 83.00 L 174.00 86.00 L 163.00 86.00 L 162.00 85.00 L 160.00 85.00 L 159.00 84.00 L 158.00 84.00 L 156.00 82.00 L 155.00 82.00 L 152.00 79.00 L 152.00 78.00 L 150.00 76.00 L 150.00 75.00 L 149.00 74.00 L 149.00 72.00 L 148.00 71.00 L 148.00 69.00 L 147.00 68.00 L 147.00 54.00 L 148.00 53.00 L 148.00 51.00 L 149.00 50.00 L 149.00 49.00 L 150.00 48.00 L 151.00 45.00 L 157.00 39.00 L 158.00 39.00 L 161.00 37.00 L 163.00 37.00 L 164.00 36.00 L 171.00 36.00 L 172.00 37.00 L 175.00 37.00 L 176.00 38.00 L 179.00 39.00 L 185.00 45.00 L 185.00 46.00 L 186.00 45.00 L 187.00 45.00 L 189.00 43.00 L 190.00 43.00 L 193.00 40.00 L 194.00 40.00 L 194.00 39.00 L 192.00 37.00 L 192.00 36.00 L 189.00 33.00 L 188.00 33.00 L 185.00 30.00 L 184.00 30.00 L 181.00 28.00 L 179.00 28.00 L 178.00 27.00 L 175.00 27.00 L 174.00 26.00 Z M 50.00 0.00 L 49.00 1.00 L 45.00 1.00 L 44.00 2.00 L 41.00 2.00 L 40.00 3.00 L 38.00 3.00 L 37.00 4.00 L 36.00 4.00 L 35.00 5.00 L 34.00 5.00 L 33.00 6.00 L 30.00 7.00 L 28.00 9.00 L 25.00 10.00 L 21.00 14.00 L 20.00 14.00 L 14.00 20.00 L 14.00 21.00 L 11.00 24.00 L 11.00 25.00 L 9.00 27.00 L 9.00 28.00 L 8.00 29.00 L 8.00 30.00 L 7.00 31.00 L 7.00 32.00 L 4.00 37.00 L 4.00 39.00 L 3.00 40.00 L 3.00 42.00 L 2.00 43.00 L 2.00 47.00 L 1.00 48.00 L 1.00 53.00 L 0.00 54.00 L 0.00 62.00 L 1.00 63.00 L 1.00 70.00 L 2.00 71.00 L 2.00 74.00 L 3.00 75.00 L 3.00 78.00 L 5.00 81.00 L 5.00 83.00 L 6.00 84.00 L 7.00 87.00 L 9.00 89.00 L 10.00 92.00 L 13.00 95.00 L 13.00 96.00 L 22.00 105.00 L 23.00 105.00 L 25.00 107.00 L 26.00 107.00 L 31.00 111.00 L 32.00 111.00 L 35.00 113.00 L 37.00 113.00 L 38.00 114.00 L 40.00 114.00 L 41.00 115.00 L 43.00 115.00 L 44.00 116.00 L 47.00 116.00 L 48.00 117.00 L 55.00 117.00 L 56.00 118.00 L 62.00 118.00 L 63.00 117.00 L 70.00 117.00 L 71.00 116.00 L 74.00 116.00 L 75.00 115.00 L 77.00 115.00 L 78.00 114.00 L 80.00 114.00 L 81.00 113.00 L 82.00 113.00 L 83.00 112.00 L 84.00 112.00 L 85.00 111.00 L 86.00 111.00 L 87.00 110.00 L 90.00 109.00 L 92.00 107.00 L 93.00 107.00 L 97.00 103.00 L 98.00 103.00 L 103.00 98.00 L 103.00 97.00 L 105.00 95.00 L 105.00 93.00 L 104.00 93.00 L 98.00 87.00 L 97.00 87.00 L 92.00 82.00 L 91.00 82.00 L 90.00 83.00 L 90.00 84.00 L 85.00 89.00 L 84.00 89.00 L 81.00 92.00 L 80.00 92.00 L 79.00 93.00 L 78.00 93.00 L 73.00 96.00 L 71.00 96.00 L 70.00 97.00 L 66.00 97.00 L 65.00 98.00 L 53.00 98.00 L 52.00 97.00 L 49.00 97.00 L 48.00 96.00 L 46.00 96.00 L 45.00 95.00 L 43.00 95.00 L 42.00 94.00 L 41.00 94.00 L 39.00 92.00 L 38.00 92.00 L 36.00 90.00 L 35.00 90.00 L 27.00 82.00 L 27.00 81.00 L 25.00 79.00 L 25.00 78.00 L 22.00 73.00 L 22.00 71.00 L 21.00 70.00 L 21.00 67.00 L 20.00 66.00 L 20.00 51.00 L 21.00 50.00 L 21.00 47.00 L 22.00 46.00 L 22.00 44.00 L 23.00 43.00 L 23.00 42.00 L 24.00 41.00 L 25.00 38.00 L 27.00 36.00 L 27.00 35.00 L 35.00 27.00 L 36.00 27.00 L 38.00 25.00 L 39.00 25.00 L 40.00 24.00 L 41.00 24.00 L 46.00 21.00 L 48.00 21.00 L 49.00 20.00 L 53.00 20.00 L 54.00 19.00 L 65.00 19.00 L 66.00 20.00 L 69.00 20.00 L 70.00 21.00 L 72.00 21.00 L 73.00 22.00 L 75.00 22.00 L 76.00 23.00 L 79.00 24.00 L 81.00 26.00 L 82.00 26.00 L 90.00 34.00 L 92.00 34.00 L 96.00 30.00 L 97.00 30.00 L 101.00 26.00 L 102.00 26.00 L 105.00 23.00 L 105.00 22.00 L 94.00 11.00 L 93.00 11.00 L 88.00 7.00 L 87.00 7.00 L 82.00 4.00 L 80.00 4.00 L 79.00 3.00 L 77.00 3.00 L 76.00 2.00 L 73.00 2.00 L 72.00 1.00 L 69.00 1.00 L 68.00 0.00 Z" fill="#FFFFFF" fill-rule="evenodd"/>
</svg>
